<svg width="19" height="22" viewBox="0 0 19 22" fill="none" xmlns="http://www.w3.org/2000/svg">
<path fill-rule="evenodd" clip-rule="evenodd" d="M9.5 4.33527C4.95126 4.33527 1.40741 7.41071 1.40741 11.922C1.40741 13.0724 1.63391 13.8943 1.99455 14.4938C2.35079 15.0899 2.87418 15.5245 3.56797 15.8429C5.00178 16.5011 7.05018 16.6185 9.49992 16.6185C11.9496 16.6185 13.998 16.5011 15.4319 15.8429C16.1257 15.5245 16.649 15.0899 17.0053 14.4938C17.3659 13.8943 17.5924 13.0724 17.5924 11.922C17.5924 7.41071 14.0487 4.33527 9.5 4.33527ZM0 11.922C0 6.45782 4.33341 2.89018 9.5 2.89018C14.6666 2.89018 19 6.45782 19 11.922C19 13.2655 18.7339 14.3685 18.2039 15.2523C17.6707 16.1408 16.9065 16.7482 16.0071 17.1615C14.2577 17.9653 11.9081 18.0635 9.50006 18.0635C7.09198 18.0635 4.74246 17.9653 2.99305 17.1615C2.09363 16.7482 1.32944 16.1409 0.796171 15.2523C0.266197 14.3684 0 13.2653 0 11.922Z" fill="#444C57"/>
<path fill-rule="evenodd" clip-rule="evenodd" d="M5.27778 8.67054C5.66591 8.67054 5.98148 8.99456 5.98148 9.39308V11.5607C5.98148 11.9592 5.66591 12.2833 5.27778 12.2833C4.88964 12.2833 4.57407 11.9592 4.57407 11.5607V9.39308C4.57407 8.99456 4.88964 8.67054 5.27778 8.67054Z" fill="#444C57"/>
<path fill-rule="evenodd" clip-rule="evenodd" d="M9.5 0C9.88813 0 10.2037 0.324018 10.2037 0.722545V2.89018C10.2037 3.28871 9.88813 3.61272 9.5 3.61272C9.11187 3.61272 8.7963 3.28871 8.7963 2.89018V0.722545C8.7963 0.324018 9.11187 0 9.5 0Z" fill="#444C57"/>
<path fill-rule="evenodd" clip-rule="evenodd" d="M13.3704 8.67054C13.7585 8.67054 14.0741 8.99456 14.0741 9.39308V11.5607C14.0741 11.9592 13.7585 12.2833 13.3704 12.2833C12.9822 12.2833 12.6667 11.9592 12.6667 11.5607V9.39308C12.6667 8.99456 12.9822 8.67054 13.3704 8.67054Z" fill="#444C57"/>
<path fill-rule="evenodd" clip-rule="evenodd" d="M9.5 21.3151C7.01944 21.3151 4.59265 21.5465 2.2375 21.9879C1.85485 22.0602 1.4887 21.8005 1.41833 21.4076C1.34906 21.0148 1.60195 20.6388 1.98459 20.5665C4.42227 20.1093 6.93472 19.87 9.49986 19.87C12.065 19.87 14.5775 20.1093 17.0151 20.5665C17.3978 20.6388 17.6507 21.0148 17.5814 21.4076C17.511 21.8005 17.1449 22.0602 16.7622 21.9879C14.407 21.5465 11.9807 21.3151 9.5 21.3151Z" fill="#444C57"/>
</svg>
