<svg width="16" height="16" viewBox="0 0 16 16" fill="none" xmlns="http://www.w3.org/2000/svg">
<path d="M8.08863 13.0514C10.6272 13.0514 12.6851 10.9935 12.6851 8.45492C12.6851 5.91636 10.6272 3.85845 8.08863 3.85845C5.55007 3.85845 3.49216 5.91636 3.49216 8.45492C3.49216 10.9935 5.55007 13.0514 8.08863 13.0514Z" fill="white"/>
<path d="M15.1253 6.6877H15.1114C14.4616 3.41986 11.5599 0.90741 8.08864 0.90741C4.6175 0.90741 1.71584 3.41986 1.06605 6.6877H1.06399C0.672535 6.6877 0.269043 6.92109 0.269043 7.31254V10.0697C0.269043 10.4614 0.672535 10.8155 1.06399 10.8155H1.73355C2.12518 10.8155 2.50493 10.4614 2.50493 10.0697V7.31254C2.50493 7.02033 2.29699 6.76974 2.04451 6.66104C2.65198 3.86618 5.12952 1.76496 8.10429 1.76496C11.0809 1.76496 13.5363 3.86893 14.1417 6.66637C13.8952 6.77748 13.6844 7.02463 13.6844 7.31254V10.0697C13.6844 10.448 14.0284 10.7562 14.3723 10.7768V11.3289L9.77518 14.6131L10.1534 15.0926L15.0603 11.6326V10.8155H15.1253C15.5168 10.8155 15.7483 10.4614 15.7483 10.0697V7.31254C15.7483 6.92109 15.5168 6.6877 15.1253 6.6877Z" fill="white"/>
</svg>
