<svg width="18" height="18" viewBox="0 0 18 18" fill="none" xmlns="http://www.w3.org/2000/svg">
<path fill-rule="evenodd" clip-rule="evenodd" d="M5.60696 1H7.4C7.84184 1 8.2 1.35818 8.2 1.8C8.2 2.24183 7.84184 2.6 7.4 2.6H5.64C4.95474 2.6 4.4889 2.60062 4.12883 2.63004C3.7781 2.6587 3.59874 2.71064 3.47362 2.77439C3.17256 2.92778 2.92778 3.17256 2.77439 3.47362C2.71064 3.59874 2.6587 3.7781 2.63004 4.12883C2.60062 4.4889 2.6 4.95474 2.6 5.64V12.36C2.6 13.0453 2.60062 13.5111 2.63004 13.8712C2.6587 14.2219 2.71064 14.4013 2.77439 14.5264C2.92778 14.8274 3.17256 15.0722 3.47362 15.2256C3.59874 15.2894 3.7781 15.3413 4.12883 15.37C4.4889 15.3994 4.95474 15.4 5.64 15.4H12.36C13.0453 15.4 13.5111 15.3994 13.8712 15.37C14.2219 15.3413 14.4013 15.2894 14.5264 15.2256C14.8274 15.0722 15.0722 14.8274 15.2256 14.5264C15.2894 14.4013 15.3413 14.2219 15.37 13.8712C15.3994 13.5111 15.4 13.0453 15.4 12.36V10.6C15.4 10.1582 15.7582 9.8 16.2 9.8C16.6418 9.8 17 10.1582 17 10.6V12.393C17 13.037 17 13.5685 16.9646 14.0014C16.9279 14.4511 16.849 14.8645 16.6512 15.2528C16.3444 15.8549 15.8549 16.3444 15.2528 16.6512C14.8645 16.849 14.4511 16.9279 14.0014 16.9646C13.5685 17 13.037 17 12.393 17H5.60694C4.96298 17 4.4315 17 3.99854 16.9646C3.54886 16.9279 3.1355 16.849 2.74723 16.6512C2.14511 16.3444 1.65558 15.8549 1.34878 15.2528C1.15094 14.8645 1.0721 14.4511 1.03535 14.0014C0.999984 13.5685 0.999992 13.037 1 12.393V5.60696C0.999992 4.96298 0.999984 4.4315 1.03535 3.99854C1.0721 3.54886 1.15094 3.1355 1.34878 2.74723C1.65558 2.14511 2.14511 1.65558 2.74723 1.34878C3.1355 1.15094 3.54886 1.0721 3.99854 1.03535C4.4315 0.999984 4.96298 0.999992 5.60696 1ZM10.6 1.80001C10.6 1.35818 10.9582 1.00001 11.4 1.00001H16.2C16.6418 1.00001 17 1.35818 17 1.80001V6.60001C17 7.04184 16.6418 7.4 16.2 7.4C15.7582 7.4 15.4 7.04184 15.4 6.60001V3.73138L9.56568 9.56568C9.25328 9.87808 8.74672 9.87808 8.43432 9.56568C8.12192 9.25328 8.12192 8.74672 8.43432 8.43432L14.2686 2.60001H11.4C10.9582 2.60001 10.6 2.24184 10.6 1.80001Z" fill="#555555" stroke="#555555"/>
</svg>
